<svg width="2012" height="1614" viewBox="0 0 2012 1614" fill="none" xmlns="http://www.w3.org/2000/svg">
<rect width="2012" height="1614" fill="#323329"/>
<path d="M747.373 263.667H644.14C525.15 263.667 462.667 326.15 462.667 444.597V547.83C462.667 666.277 525.15 728.76 643.597 728.76H746.83C865.277 728.76 927.76 666.277 927.76 547.83V444.597C928.303 326.15 865.82 263.667 747.373 263.667Z" fill="#FCF4E4"/>
<path d="M1368.38 263.667H1265.14C1146.7 263.667 1084.21 326.15 1084.21 444.597V547.83C1084.21 666.277 1146.7 728.76 1265.14 728.76H1368.38C1486.82 728.76 1549.31 666.277 1549.31 547.83V444.597C1549.31 326.15 1486.82 263.667 1368.38 263.667Z" fill="#C47C4C"/>
<path d="M1368.38 884.707H1265.14C1146.7 884.707 1084.21 947.19 1084.21 1065.64V1168.87C1084.21 1287.32 1146.7 1349.8 1265.14 1349.8H1368.38C1486.82 1349.8 1549.31 1287.32 1549.31 1168.87V1065.64C1549.31 947.19 1486.82 884.707 1368.38 884.707Z" fill="#FCF4E4"/>
<path d="M747.373 884.707H644.14C525.15 884.707 462.667 947.19 462.667 1065.64V1168.87C462.667 1287.86 525.15 1350.34 643.597 1350.34H746.83C865.277 1350.34 927.76 1287.86 927.76 1169.41V1066.18C928.303 947.19 865.82 884.707 747.373 884.707Z" fill="#C47C4C"/>
</svg>
