<svg width="578" height="578" viewBox="0 0 578 578" fill="none" xmlns="http://www.w3.org/2000/svg">
<circle cx="289" cy="289" r="289" fill="#E6E2DF"/>
<path d="M289 0C448.611 0.000239155 578 129.39 578 289C578 434.78 470.063 555.348 329.747 575.148C322.168 556.668 315.842 539.304 311.501 524.016C306.037 504.766 303.69 488.727 306.011 477.896C314.262 439.392 322.5 397.941 322.25 358.565C322.001 319.197 313.267 281.953 287.62 251.824C236.109 191.311 245.626 198.332 180.14 130.347C154.739 103.976 155.658 65.1067 167.432 26.7363C204.386 9.57794 245.575 0 289 0Z" fill="#C47C4C"/>
<path d="M481.052 209.179C503.415 184.314 490.913 152.721 489.381 148.841C487.85 144.962 485.198 146.595 483.816 148.645C482.409 150.695 451.804 188.317 451.804 188.317H290.945C290.945 188.317 208.294 71.6568 205.442 67.5555C202.591 63.4542 200.4 63 198.432 63C196.453 63 193.377 63.6507 193.377 69.2742C193.377 72.9582 193.377 131.319 193.377 131.319C193.377 131.319 112.692 177.192 101.062 183.442C89.4702 189.716 92.9566 197.501 95.8206 203.542C98.3356 208.908 130.883 277.497 131.767 279.45C132.639 281.39 134.83 281.39 135.503 280.088C136.151 278.787 144.705 267.11 146.236 264.519C147.768 261.94 149.747 262.578 151.068 263.671C151.902 264.347 156.77 267.564 158.738 269.062C160.717 270.585 162.897 269.062 163.556 267.968C164.229 266.901 174.302 251.981 175.397 250.25C176.493 248.519 178.025 249.403 178.697 249.833C179.345 250.25 183.08 253.934 185.707 256.525C188.335 258.907 189.219 258.035 191.186 255.445C191.97 254.438 199.093 243.78 200.624 242.257C202.143 240.747 203.239 241.607 204.347 243.117C205.443 244.64 215.753 260.43 219.475 266.251C223.198 272.107 222.763 274.686 222.763 276.847C222.763 279.008 211.793 396 211.793 396H285.903L298.404 314.248C298.404 314.248 374.27 314.248 379.537 314.248C384.792 314.248 396.197 315.979 407.603 327.018C419.009 338.032 428.421 395.558 428.421 395.558H501L481.052 209.179Z" fill="#323329"/>
<mask id="path-4-outside-1_353_91" maskUnits="userSpaceOnUse" x="75" y="278.999" width="394" height="166" fill="black">
<rect fill="white" x="75" y="278.999" width="394" height="166"/>
<path d="M92.4 296.199H100.4C103.733 296.199 106.667 297.999 109.2 301.599L143 350.199C148.467 343.799 153.8 336.532 159 328.399C164.333 320.266 168.267 313.732 170.8 308.799L174.6 301.599C176.867 297.999 179.733 296.199 183.2 296.199H191.4C194.2 296.199 195.6 297.466 195.6 299.999C195.6 301.066 195.067 302.399 194 303.999C193.067 305.599 191.333 308.532 188.8 312.799C186.267 316.932 181.267 324.199 173.8 334.599C166.467 344.866 159.4 353.666 152.6 360.999L197.4 425.399C198.2 426.599 198.6 427.732 198.6 428.799C198.6 430.932 197.267 431.999 194.6 431.999H186C182.133 431.999 178.933 429.999 176.4 425.999L141.8 371.999C137 377.066 131.733 384.132 126 393.199C120.4 402.132 115.933 409.866 112.6 416.399L107.6 425.999C105.067 429.999 101.867 431.999 98 431.999H89.4C86.8667 431.999 85.6 430.932 85.6 428.799C85.6 425.332 93.2 412.799 108.4 391.199C115.733 380.799 123.4 370.799 131.4 361.199L89 302.599C88.3333 301.666 88 300.799 88 299.999C88 297.466 89.4667 296.199 92.4 296.199ZM306.339 364.999L307.539 364.399C316.072 368.932 320.339 376.199 320.339 386.199C320.339 394.466 318.472 402.066 314.739 408.999C320.072 414.599 323.739 418.599 325.739 420.999C327.739 423.266 329.139 424.866 329.939 425.799C330.739 426.732 331.139 427.799 331.139 428.999C331.139 430.999 329.739 431.999 326.939 431.999H320.939C318.406 431.999 315.406 430.332 311.939 426.999C308.606 423.532 306.472 421.399 305.539 420.599C296.339 429.932 283.806 434.599 267.939 434.599C252.072 434.599 239.739 430.799 230.939 423.199C222.272 415.599 217.939 406.666 217.939 396.399C217.939 388.266 220.272 381.199 224.939 375.199C229.739 369.199 237.072 363.466 246.939 357.999C240.672 351.732 236.139 346.466 233.339 342.199C230.672 337.799 229.339 332.732 229.339 326.999C229.339 318.066 232.406 310.399 238.539 303.999C244.806 297.599 253.072 294.399 263.339 294.399C273.606 294.399 282.006 297.666 288.539 304.199C295.072 310.599 298.339 317.932 298.339 326.199C298.339 334.332 295.739 340.932 290.539 345.999C285.472 351.066 278.072 356.066 268.339 360.999C292.072 386.332 304.206 399.266 304.739 399.799C307.672 394.332 309.139 388.799 309.139 383.199C309.139 377.466 308.206 371.399 306.339 364.999ZM266.739 421.599C279.806 421.599 289.672 417.932 296.339 410.599L255.339 367.999C241.206 374.399 234.139 383.866 234.139 396.399C234.139 403.066 237.072 408.932 242.939 413.999C248.806 419.066 256.739 421.599 266.739 421.599ZM245.339 326.999C245.339 334.066 250.406 342.199 260.539 351.399C268.406 347.532 274.139 343.866 277.739 340.399C281.472 336.932 283.339 332.599 283.339 327.399C283.339 322.066 281.472 317.666 277.739 314.199C274.139 310.599 269.472 308.799 263.739 308.799C258.006 308.799 253.472 310.466 250.139 313.799C246.939 317.132 245.339 321.532 245.339 326.999ZM458.794 431.999H440.794V304.999H395.594C394.66 312.332 393.66 320.066 392.594 328.199C391.527 336.199 390.394 344.132 389.194 351.999C388.127 359.866 387.06 367.266 385.994 374.199C384.927 381.132 383.86 387.199 382.794 392.399C381.06 401.332 378.927 408.932 376.394 415.199C373.86 421.466 370.46 426.199 366.194 429.399C362.06 432.599 356.594 434.199 349.794 434.199C347.527 434.199 345.194 433.932 342.794 433.399C340.527 432.999 338.527 432.466 336.794 431.799V416.799C338.26 417.466 339.927 418.066 341.794 418.599C343.66 418.999 345.66 419.199 347.794 419.199C351.794 419.199 354.927 417.599 357.194 414.399C359.594 411.066 361.46 406.999 362.794 402.199C364.127 397.266 365.26 392.399 366.194 387.599C366.994 383.732 367.927 378.599 368.994 372.199C370.06 365.666 371.194 358.066 372.394 349.399C373.727 340.732 375.06 331.332 376.394 321.199C377.86 310.932 379.26 300.266 380.594 289.199H458.794V431.999Z"/>
</mask>
<path d="M92.4 296.199H100.4C103.733 296.199 106.667 297.999 109.2 301.599L143 350.199C148.467 343.799 153.8 336.532 159 328.399C164.333 320.266 168.267 313.732 170.8 308.799L174.6 301.599C176.867 297.999 179.733 296.199 183.2 296.199H191.4C194.2 296.199 195.6 297.466 195.6 299.999C195.6 301.066 195.067 302.399 194 303.999C193.067 305.599 191.333 308.532 188.8 312.799C186.267 316.932 181.267 324.199 173.8 334.599C166.467 344.866 159.4 353.666 152.6 360.999L197.4 425.399C198.2 426.599 198.6 427.732 198.6 428.799C198.6 430.932 197.267 431.999 194.6 431.999H186C182.133 431.999 178.933 429.999 176.4 425.999L141.8 371.999C137 377.066 131.733 384.132 126 393.199C120.4 402.132 115.933 409.866 112.6 416.399L107.6 425.999C105.067 429.999 101.867 431.999 98 431.999H89.4C86.8667 431.999 85.6 430.932 85.6 428.799C85.6 425.332 93.2 412.799 108.4 391.199C115.733 380.799 123.4 370.799 131.4 361.199L89 302.599C88.3333 301.666 88 300.799 88 299.999C88 297.466 89.4667 296.199 92.4 296.199ZM306.339 364.999L307.539 364.399C316.072 368.932 320.339 376.199 320.339 386.199C320.339 394.466 318.472 402.066 314.739 408.999C320.072 414.599 323.739 418.599 325.739 420.999C327.739 423.266 329.139 424.866 329.939 425.799C330.739 426.732 331.139 427.799 331.139 428.999C331.139 430.999 329.739 431.999 326.939 431.999H320.939C318.406 431.999 315.406 430.332 311.939 426.999C308.606 423.532 306.472 421.399 305.539 420.599C296.339 429.932 283.806 434.599 267.939 434.599C252.072 434.599 239.739 430.799 230.939 423.199C222.272 415.599 217.939 406.666 217.939 396.399C217.939 388.266 220.272 381.199 224.939 375.199C229.739 369.199 237.072 363.466 246.939 357.999C240.672 351.732 236.139 346.466 233.339 342.199C230.672 337.799 229.339 332.732 229.339 326.999C229.339 318.066 232.406 310.399 238.539 303.999C244.806 297.599 253.072 294.399 263.339 294.399C273.606 294.399 282.006 297.666 288.539 304.199C295.072 310.599 298.339 317.932 298.339 326.199C298.339 334.332 295.739 340.932 290.539 345.999C285.472 351.066 278.072 356.066 268.339 360.999C292.072 386.332 304.206 399.266 304.739 399.799C307.672 394.332 309.139 388.799 309.139 383.199C309.139 377.466 308.206 371.399 306.339 364.999ZM266.739 421.599C279.806 421.599 289.672 417.932 296.339 410.599L255.339 367.999C241.206 374.399 234.139 383.866 234.139 396.399C234.139 403.066 237.072 408.932 242.939 413.999C248.806 419.066 256.739 421.599 266.739 421.599ZM245.339 326.999C245.339 334.066 250.406 342.199 260.539 351.399C268.406 347.532 274.139 343.866 277.739 340.399C281.472 336.932 283.339 332.599 283.339 327.399C283.339 322.066 281.472 317.666 277.739 314.199C274.139 310.599 269.472 308.799 263.739 308.799C258.006 308.799 253.472 310.466 250.139 313.799C246.939 317.132 245.339 321.532 245.339 326.999ZM458.794 431.999H440.794V304.999H395.594C394.66 312.332 393.66 320.066 392.594 328.199C391.527 336.199 390.394 344.132 389.194 351.999C388.127 359.866 387.06 367.266 385.994 374.199C384.927 381.132 383.86 387.199 382.794 392.399C381.06 401.332 378.927 408.932 376.394 415.199C373.86 421.466 370.46 426.199 366.194 429.399C362.06 432.599 356.594 434.199 349.794 434.199C347.527 434.199 345.194 433.932 342.794 433.399C340.527 432.999 338.527 432.466 336.794 431.799V416.799C338.26 417.466 339.927 418.066 341.794 418.599C343.66 418.999 345.66 419.199 347.794 419.199C351.794 419.199 354.927 417.599 357.194 414.399C359.594 411.066 361.46 406.999 362.794 402.199C364.127 397.266 365.26 392.399 366.194 387.599C366.994 383.732 367.927 378.599 368.994 372.199C370.06 365.666 371.194 358.066 372.394 349.399C373.727 340.732 375.06 331.332 376.394 321.199C377.86 310.932 379.26 300.266 380.594 289.199H458.794V431.999Z" fill="#C47C4C"/>
<path d="M109.2 301.599L117.41 295.889C117.399 295.874 117.389 295.859 117.378 295.844L109.2 301.599ZM143 350.199L134.79 355.909C136.56 358.453 139.409 360.033 142.504 360.187C145.599 360.34 148.591 359.05 150.604 356.694L143 350.199ZM159 328.399L150.638 322.915C150.616 322.948 150.596 322.98 150.575 323.012L159 328.399ZM170.8 308.799L161.956 304.131C161.939 304.165 161.921 304.198 161.904 304.231L170.8 308.799ZM174.6 301.599L166.138 296.271C166.002 296.486 165.875 296.706 165.756 296.931L174.6 301.599ZM194 303.999L185.679 298.452C185.569 298.618 185.463 298.788 185.362 298.96L194 303.999ZM188.8 312.799L197.326 318.025C197.35 317.985 197.375 317.945 197.399 317.904L188.8 312.799ZM173.8 334.599L165.677 328.767C165.672 328.774 165.667 328.78 165.663 328.787L173.8 334.599ZM152.6 360.999L145.267 354.2C142.072 357.646 141.707 362.852 144.391 366.71L152.6 360.999ZM197.4 425.399L205.72 419.852C205.684 419.797 205.647 419.743 205.609 419.688L197.4 425.399ZM176.4 425.999L184.848 420.648C184.839 420.634 184.829 420.619 184.82 420.604L176.4 425.999ZM141.8 371.999L150.22 366.604C148.561 364.015 145.803 362.333 142.741 362.043C139.68 361.754 136.655 362.889 134.54 365.122L141.8 371.999ZM126 393.199L117.548 387.854C117.541 387.865 117.534 387.877 117.527 387.888L126 393.199ZM112.6 416.399L121.469 421.018C121.482 420.994 121.495 420.969 121.508 420.944L112.6 416.399ZM107.6 425.999L116.048 431.35C116.199 431.112 116.339 430.868 116.469 430.618L107.6 425.999ZM108.4 391.199L100.227 385.436L100.222 385.444L108.4 391.199ZM131.4 361.199L139.082 367.601C142.009 364.089 142.181 359.04 139.502 355.337L131.4 361.199ZM89 302.599L80.8627 308.411C80.8745 308.428 80.8864 308.444 80.8983 308.461L89 302.599ZM92.4 296.199V306.199H100.4V296.199V286.199H92.4V296.199ZM100.4 296.199V306.199C100.321 306.199 100.199 306.186 100.064 306.148C99.932 306.11 99.8638 306.069 99.8698 306.072C99.9003 306.091 100.329 306.369 101.022 307.354L109.2 301.599L117.378 295.844C113.633 290.522 107.988 286.199 100.4 286.199V296.199ZM109.2 301.599L100.99 307.309L134.79 355.909L143 350.199L151.21 344.489L117.41 295.889L109.2 301.599ZM143 350.199L150.604 356.694C156.409 349.897 162.012 342.252 167.425 333.786L159 328.399L150.575 323.012C145.588 330.813 140.524 337.701 135.396 343.704L143 350.199ZM159 328.399L167.362 333.883C172.769 325.638 176.924 318.764 179.696 313.367L170.8 308.799L161.904 304.231C159.609 308.701 155.898 314.893 150.638 322.915L159 328.399ZM170.8 308.799L179.644 313.467L183.444 306.267L174.6 301.599L165.756 296.931L161.956 304.131L170.8 308.799ZM174.6 301.599L183.062 306.927C183.596 306.08 183.888 305.942 183.768 306.018C183.705 306.057 183.592 306.114 183.446 306.156C183.379 306.175 183.32 306.186 183.273 306.193C183.25 306.196 183.232 306.197 183.219 306.198C183.206 306.199 183.2 306.199 183.2 306.199V296.199V286.199C175.485 286.199 169.756 290.525 166.138 296.271L174.6 301.599ZM183.2 296.199V306.199H191.4V296.199V286.199H183.2V296.199ZM191.4 296.199V306.199C191.378 306.199 190.979 306.2 190.35 306.011C189.686 305.81 188.753 305.39 187.841 304.564C185.797 302.715 185.6 300.546 185.6 299.999H195.6H205.6C205.6 296.918 204.703 292.849 201.259 289.734C198.006 286.79 194.108 286.199 191.4 286.199V296.199ZM195.6 299.999H185.6C185.6 298.903 185.863 298.215 185.915 298.085C185.975 297.935 185.949 298.048 185.679 298.452L194 303.999L202.321 309.546C203.719 307.448 205.6 304.071 205.6 299.999H195.6ZM194 303.999L185.362 298.96C184.451 300.522 182.736 303.424 180.201 307.694L188.8 312.799L197.399 317.904C199.93 313.64 201.682 310.676 202.638 309.038L194 303.999ZM188.8 312.799L180.274 307.573C177.956 311.355 173.158 318.346 165.677 328.767L173.8 334.599L181.923 340.431C189.375 330.052 194.577 322.51 197.326 318.025L188.8 312.799ZM173.8 334.599L165.663 328.787C158.516 338.792 151.715 347.246 145.267 354.2L152.6 360.999L159.933 367.798C167.085 360.085 174.418 350.939 181.937 340.411L173.8 334.599ZM152.6 360.999L144.391 366.71L189.191 431.11L197.4 425.399L205.609 419.688L160.809 355.288L152.6 360.999ZM197.4 425.399L189.08 430.946C189.16 431.067 188.6 430.29 188.6 428.799H198.6H208.6C208.6 425.175 207.24 422.131 205.72 419.852L197.4 425.399ZM198.6 428.799H188.6C188.6 427.659 189.067 425.219 191.353 423.39C193.213 421.902 194.865 421.999 194.6 421.999V431.999V441.999C197.002 441.999 200.654 441.562 203.847 439.008C207.466 436.112 208.6 432.073 208.6 428.799H198.6ZM194.6 431.999V421.999H186V431.999V441.999H194.6V431.999ZM186 431.999V421.999C185.905 421.999 185.9 421.988 185.948 422.002C185.998 422.016 186.022 422.033 186 422.019C185.952 421.989 185.512 421.696 184.848 420.648L176.4 425.999L167.952 431.35C171.844 437.495 177.905 441.999 186 441.999V431.999ZM176.4 425.999L184.82 420.604L150.22 366.604L141.8 371.999L133.38 377.394L167.98 431.394L176.4 425.999ZM141.8 371.999L134.54 365.122C129.124 370.839 123.465 378.498 117.548 387.854L126 393.199L134.452 398.544C140.002 389.767 144.876 383.293 149.06 378.876L141.8 371.999ZM126 393.199L117.527 387.888C111.832 396.972 107.203 404.973 103.692 411.854L112.6 416.399L121.508 420.944C124.664 414.758 128.968 407.292 134.473 398.51L126 393.199ZM112.6 416.399L103.731 411.78L98.7309 421.38L107.6 425.999L116.469 430.618L121.469 421.018L112.6 416.399ZM107.6 425.999L99.1518 420.648C98.4881 421.696 98.0482 421.989 98 422.019C97.9784 422.033 98.0016 422.016 98.0518 422.002C98.1002 421.988 98.0947 421.999 98 421.999V431.999V441.999C106.095 441.999 112.156 437.495 116.048 431.35L107.6 425.999ZM98 431.999V421.999H89.4V431.999V441.999H98V431.999ZM89.4 431.999V421.999C89.4358 421.999 89.8276 421.999 90.4401 422.171C91.0787 422.35 92.0283 422.739 92.9914 423.55C95.2311 425.436 95.6 427.83 95.6 428.799H85.6H75.6C75.6 431.901 76.6023 435.895 80.1086 438.848C83.2858 441.524 86.9711 441.999 89.4 441.999V431.999ZM85.6 428.799H95.6C95.6 429.944 95.3369 430.557 95.4486 430.22C95.5121 430.028 95.6861 429.572 96.0578 428.79C96.7994 427.228 98.0289 424.989 99.8508 421.984C103.475 416.007 109.023 407.69 116.578 396.954L108.4 391.199L100.222 385.444C92.5768 396.308 86.7248 405.058 82.7492 411.614C80.7711 414.876 79.1507 417.77 77.9922 420.208C77.4139 421.426 76.8754 422.687 76.4639 423.928C76.1006 425.024 75.6 426.787 75.6 428.799H85.6ZM108.4 391.199L116.573 396.962C123.754 386.777 131.257 376.991 139.082 367.601L131.4 361.199L123.718 354.797C115.543 364.607 107.713 374.821 100.227 385.436L108.4 391.199ZM131.4 361.199L139.502 355.337L97.1017 296.737L89 302.599L80.8983 308.461L123.298 367.061L131.4 361.199ZM89 302.599L97.1373 296.787C97.1768 296.842 98 297.988 98 299.999H88H78C78 303.61 79.4899 306.49 80.8627 308.411L89 302.599ZM88 299.999H98C98 300.687 97.7325 302.907 95.6362 304.717C93.8203 306.286 92.1448 306.199 92.4 306.199V296.199V286.199C89.7218 286.199 85.8464 286.746 82.5638 289.581C79.0008 292.658 78 296.777 78 299.999H88ZM306.339 364.999L301.867 356.055C297.544 358.216 295.386 363.159 296.739 367.799L306.339 364.999ZM307.539 364.399L312.231 355.568C309.374 354.05 305.96 354.008 303.067 355.455L307.539 364.399ZM314.739 408.999L305.934 404.258C303.883 408.067 304.514 412.763 307.498 415.896L314.739 408.999ZM325.739 420.999L318.057 427.401C318.117 427.473 318.178 427.545 318.241 427.615L325.739 420.999ZM311.939 426.999L304.731 433.93C304.821 434.024 304.914 434.117 305.008 434.207L311.939 426.999ZM305.539 420.599L312.047 413.006C308.059 409.588 302.105 409.838 298.417 413.579L305.539 420.599ZM230.939 423.199L224.346 430.718C224.365 430.734 224.384 430.751 224.403 430.767L230.939 423.199ZM224.939 375.199L217.13 368.952C217.102 368.988 217.074 369.024 217.046 369.06L224.939 375.199ZM246.939 357.999L251.785 366.746C254.532 365.224 256.404 362.501 256.842 359.392C257.279 356.282 256.23 353.148 254.01 350.928L246.939 357.999ZM233.339 342.199L224.787 347.382C224.849 347.484 224.913 347.586 224.979 347.686L233.339 342.199ZM238.539 303.999L231.394 297.003C231.369 297.028 231.344 297.054 231.319 297.08L238.539 303.999ZM288.539 304.199L281.468 311.27C281.492 311.294 281.517 311.319 281.541 311.343L288.539 304.199ZM290.539 345.999L283.56 338.837C283.529 338.867 283.499 338.897 283.468 338.928L290.539 345.999ZM268.339 360.999L263.818 352.079C261.011 353.502 259.037 356.164 258.491 359.263C257.945 362.363 258.889 365.539 261.041 367.836L268.339 360.999ZM304.739 399.799L297.668 406.87C299.905 409.107 303.069 410.154 306.198 409.692C309.328 409.23 312.055 407.315 313.551 404.527L304.739 399.799ZM296.339 410.599L303.738 417.326C307.279 413.431 307.194 407.457 303.544 403.665L296.339 410.599ZM255.339 367.999L262.544 361.065C259.609 358.014 255.07 357.143 251.214 358.889L255.339 367.999ZM260.539 351.399L253.817 358.803C256.855 361.561 261.268 362.183 264.95 360.374L260.539 351.399ZM277.739 340.399L270.935 333.071C270.89 333.112 270.846 333.154 270.803 333.196L277.739 340.399ZM277.739 314.199L270.668 321.27C270.755 321.357 270.844 321.443 270.935 321.527L277.739 314.199ZM250.139 313.799L243.068 306.728C243.02 306.776 242.972 306.825 242.925 306.874L250.139 313.799ZM306.339 364.999L310.811 373.943L312.011 373.343L307.539 364.399L303.067 355.455L301.867 356.055L306.339 364.999ZM307.539 364.399L302.848 373.23C305.725 374.759 307.45 376.498 308.516 378.312C309.592 380.146 310.339 382.645 310.339 386.199H320.339H330.339C330.339 379.753 328.953 373.619 325.762 368.186C322.561 362.734 317.887 358.573 312.231 355.568L307.539 364.399ZM320.339 386.199H310.339C310.339 392.896 308.844 398.855 305.934 404.258L314.739 408.999L323.544 413.74C328.101 405.276 330.339 396.035 330.339 386.199H320.339ZM314.739 408.999L307.498 415.896C312.836 421.5 316.293 425.284 318.057 427.401L325.739 420.999L333.421 414.597C331.185 411.914 327.309 407.698 321.98 402.102L314.739 408.999ZM325.739 420.999L318.241 427.615C320.241 429.883 321.598 431.434 322.346 432.307L329.939 425.799L337.532 419.291C336.68 418.297 335.237 416.649 333.237 414.383L325.739 420.999ZM329.939 425.799L322.346 432.307C322.046 431.956 321.718 431.455 321.476 430.81C321.233 430.162 321.139 429.533 321.139 428.999H331.139H341.139C341.139 425.349 339.844 421.988 337.532 419.291L329.939 425.799ZM331.139 428.999H321.139C321.139 428.337 321.257 427.278 321.815 426.083C322.397 424.834 323.282 423.822 324.277 423.112C326.038 421.853 327.451 421.999 326.939 421.999V431.999V441.999C329.228 441.999 332.74 441.645 335.901 439.386C339.683 436.685 341.139 432.627 341.139 428.999H331.139ZM326.939 431.999V421.999H320.939V431.999V441.999H326.939V431.999ZM320.939 431.999V421.999C321.869 421.999 322.165 422.296 321.645 422.007C321.134 421.724 320.209 421.078 318.87 419.791L311.939 426.999L305.008 434.207C308.856 437.907 314.316 441.999 320.939 441.999V431.999ZM311.939 426.999L319.147 420.068C315.934 416.726 313.428 414.19 312.047 413.006L305.539 420.599L299.031 428.192C299.031 428.191 299.044 428.202 299.07 428.226C299.097 428.25 299.133 428.282 299.179 428.325C299.273 428.411 299.396 428.527 299.552 428.675C299.865 428.975 300.267 429.369 300.768 429.87C301.77 430.872 303.086 432.22 304.731 433.93L311.939 426.999ZM305.539 420.599L298.417 413.579C291.482 420.615 281.732 424.599 267.939 424.599V434.599V444.599C285.879 444.599 301.196 439.25 312.661 427.619L305.539 420.599ZM267.939 434.599V424.599C253.595 424.599 243.89 421.171 237.475 415.631L230.939 423.199L224.403 430.767C235.588 440.427 250.55 444.599 267.939 444.599V434.599ZM230.939 423.199L237.532 415.68C230.734 409.719 227.939 403.414 227.939 396.399H217.939H207.939C207.939 409.918 213.811 421.479 224.346 430.718L230.939 423.199ZM217.939 396.399H227.939C227.939 390.323 229.63 385.456 232.833 381.338L224.939 375.199L217.046 369.06C210.915 376.942 207.939 386.208 207.939 396.399H217.939ZM224.939 375.199L232.748 381.446C236.445 376.824 242.573 371.851 251.785 366.746L246.939 357.999L242.093 349.252C231.572 355.081 223.033 361.574 217.13 368.952L224.939 375.199ZM246.939 357.999L254.01 350.928C247.929 344.847 243.949 340.14 241.7 336.712L233.339 342.199L224.979 347.686C228.329 352.791 233.416 358.618 239.868 365.07L246.939 357.999ZM233.339 342.199L241.891 337.016C240.277 334.353 239.339 331.12 239.339 326.999H229.339H219.339C219.339 334.345 221.068 341.245 224.787 347.382L233.339 342.199ZM229.339 326.999H239.339C239.339 320.622 241.425 315.44 245.759 310.918L238.539 303.999L231.319 297.08C223.386 305.358 219.339 315.51 219.339 326.999H229.339ZM238.539 303.999L245.684 310.995C249.79 306.802 255.333 304.399 263.339 304.399V294.399V284.399C250.812 284.399 239.821 288.396 231.394 297.003L238.539 303.999ZM263.339 294.399V304.399C271.277 304.399 277.027 306.829 281.468 311.27L288.539 304.199L295.61 297.128C286.985 288.503 275.935 284.399 263.339 284.399V294.399ZM288.539 304.199L281.541 311.343C286.379 316.082 288.339 320.919 288.339 326.199H298.339H308.339C308.339 314.945 303.766 305.116 295.537 297.055L288.539 304.199ZM298.339 326.199H288.339C288.339 331.991 286.588 335.887 283.56 338.837L290.539 345.999L297.518 353.161C304.89 345.978 308.339 336.674 308.339 326.199H298.339ZM290.539 345.999L283.468 338.928C279.431 342.965 273.048 347.401 263.818 352.079L268.339 360.999L272.86 369.919C283.097 364.73 291.514 359.167 297.61 353.07L290.539 345.999ZM268.339 360.999L261.041 367.836C284.639 393.024 296.981 406.183 297.668 406.87L304.739 399.799L311.81 392.728C311.819 392.737 311.131 392.011 309.448 390.223C307.869 388.544 305.565 386.09 302.532 382.857C296.468 376.393 287.503 366.828 275.637 354.162L268.339 360.999ZM304.739 399.799L313.551 404.527C317.178 397.766 319.139 390.621 319.139 383.199H309.139H299.139C299.139 386.977 298.166 390.898 295.927 395.071L304.739 399.799ZM309.139 383.199H319.139C319.139 376.379 318.029 369.364 315.939 362.199L306.339 364.999L296.739 367.799C298.382 373.434 299.139 378.553 299.139 383.199H309.139ZM266.739 421.599V431.599C281.678 431.599 294.623 427.353 303.738 417.326L296.339 410.599L288.94 403.872C284.722 408.512 277.933 411.599 266.739 411.599V421.599ZM296.339 410.599L303.544 403.665L262.544 361.065L255.339 367.999L248.134 374.933L289.134 417.533L296.339 410.599ZM255.339 367.999L251.214 358.889C243.075 362.575 236.238 367.471 231.426 373.917C226.521 380.487 224.139 388.116 224.139 396.399H234.139H244.139C244.139 392.148 245.29 388.778 247.453 385.881C249.707 382.861 253.47 379.823 259.464 377.109L255.339 367.999ZM234.139 396.399H224.139C224.139 406.458 228.733 414.943 236.403 421.567L242.939 413.999L249.475 406.431C245.412 402.921 244.139 399.674 244.139 396.399H234.139ZM242.939 413.999L236.403 421.567C244.561 428.613 255.051 431.599 266.739 431.599V421.599V411.599C258.427 411.599 253.051 409.519 249.475 406.431L242.939 413.999ZM245.339 326.999H235.339C235.339 338.601 243.346 349.296 253.817 358.803L260.539 351.399L267.261 343.995C257.466 335.102 255.339 329.53 255.339 326.999H245.339ZM260.539 351.399L264.95 360.374C273.157 356.339 279.972 352.131 284.675 347.602L277.739 340.399L270.803 333.196C268.306 335.6 263.654 338.725 256.128 342.425L260.539 351.399ZM277.739 340.399L284.544 347.727C290.362 342.324 293.339 335.314 293.339 327.399H283.339H273.339C273.339 329.884 272.583 331.54 270.935 333.071L277.739 340.399ZM283.339 327.399H293.339C293.339 319.432 290.42 312.328 284.544 306.871L277.739 314.199L270.935 321.527C272.525 323.004 273.339 324.7 273.339 327.399H283.339ZM277.739 314.199L284.81 307.128C279.092 301.409 271.76 298.799 263.739 298.799V308.799V318.799C267.185 318.799 269.187 319.789 270.668 321.27L277.739 314.199ZM263.739 308.799V298.799C255.965 298.799 248.669 301.127 243.068 306.728L250.139 313.799L257.21 320.87C258.276 319.804 260.047 318.799 263.739 318.799V308.799ZM250.139 313.799L242.925 306.874C237.616 312.404 235.339 319.456 235.339 326.999H245.339H255.339C255.339 323.609 256.262 321.86 257.353 320.724L250.139 313.799ZM458.794 431.999V441.999C464.317 441.999 468.794 437.522 468.794 431.999H458.794ZM440.794 431.999H430.794C430.794 437.522 435.271 441.999 440.794 441.999V431.999ZM440.794 304.999H450.794C450.794 299.476 446.317 294.999 440.794 294.999V304.999ZM395.594 304.999V294.999C390.559 294.999 386.309 298.742 385.674 303.736L395.594 304.999ZM392.594 328.199L402.506 329.521C402.507 329.514 402.508 329.506 402.509 329.499L392.594 328.199ZM389.194 351.999L379.308 350.491C379.3 350.546 379.292 350.601 379.284 350.655L389.194 351.999ZM385.994 374.199L376.11 372.678V372.678L385.994 374.199ZM382.794 392.399L372.998 390.39C372.991 390.424 372.984 390.459 372.977 390.494L382.794 392.399ZM376.394 415.199L385.665 418.947V418.947L376.394 415.199ZM366.194 429.399L360.194 421.399C360.153 421.43 360.112 421.461 360.072 421.492L366.194 429.399ZM342.794 433.399L344.963 423.637C344.82 423.605 344.676 423.577 344.532 423.551L342.794 433.399ZM336.794 431.799H326.794C326.794 435.937 329.342 439.647 333.204 441.132L336.794 431.799ZM336.794 416.799L340.932 407.695C337.837 406.288 334.239 406.551 331.38 408.391C328.521 410.232 326.794 413.399 326.794 416.799H336.794ZM341.794 418.599L339.047 428.214C339.262 428.276 339.479 428.33 339.698 428.377L341.794 418.599ZM357.194 414.399L349.078 408.556C349.063 408.577 349.048 408.598 349.034 408.619L357.194 414.399ZM362.794 402.199L372.429 404.875C372.435 404.853 372.441 404.831 372.447 404.808L362.794 402.199ZM366.194 387.599L356.401 385.573C356.393 385.612 356.385 385.651 356.378 385.69L366.194 387.599ZM368.994 372.199L378.858 373.843C378.859 373.832 378.861 373.821 378.863 373.81L368.994 372.199ZM372.394 349.399L362.51 347.878C362.502 347.928 362.495 347.978 362.488 348.027L372.394 349.399ZM376.394 321.199L366.494 319.785C366.489 319.821 366.484 319.858 366.479 319.894L376.394 321.199ZM380.594 289.199V279.199C375.534 279.199 371.271 282.979 370.666 288.003L380.594 289.199ZM458.794 289.199H468.794C468.794 283.676 464.317 279.199 458.794 279.199V289.199ZM458.794 431.999V421.999H440.794V431.999V441.999H458.794V431.999ZM440.794 431.999H450.794V304.999H440.794H430.794V431.999H440.794ZM440.794 304.999V294.999H395.594V304.999V314.999H440.794V304.999ZM395.594 304.999L385.674 303.736C384.742 311.056 383.744 318.777 382.679 326.899L392.594 328.199L402.509 329.499C403.577 321.355 404.579 313.609 405.514 306.262L395.594 304.999ZM392.594 328.199L382.681 326.877C381.623 334.816 380.499 342.687 379.308 350.491L389.194 351.999L399.079 353.507C400.289 345.577 401.431 337.582 402.506 329.521L392.594 328.199ZM389.194 351.999L379.284 350.655C378.225 358.471 377.167 365.811 376.11 372.678L385.994 374.199L395.877 375.72C396.954 368.72 398.029 361.261 399.103 353.343L389.194 351.999ZM385.994 374.199L376.11 372.678C375.061 379.497 374.023 385.394 372.998 390.39L382.794 392.399L392.59 394.408C393.698 389.004 394.793 382.768 395.877 375.72L385.994 374.199ZM382.794 392.399L372.977 390.494C371.327 398.998 369.349 405.944 367.123 411.451L376.394 415.199L385.665 418.947C388.505 411.921 390.794 403.666 392.611 394.304L382.794 392.399ZM376.394 415.199L367.123 411.451C365.092 416.475 362.661 419.548 360.194 421.399L366.194 429.399L372.194 437.399C378.26 432.85 382.629 426.457 385.665 418.947L376.394 415.199ZM366.194 429.399L360.072 421.492C358.156 422.975 355.048 424.199 349.794 424.199V434.199V444.199C358.139 444.199 365.965 442.223 372.315 437.306L366.194 429.399ZM349.794 434.199V424.199C348.315 424.199 346.71 424.025 344.963 423.637L342.794 433.399L340.624 443.161C343.677 443.839 346.739 444.199 349.794 444.199V434.199ZM342.794 433.399L344.532 423.551C342.754 423.237 341.395 422.855 340.384 422.466L336.794 431.799L333.204 441.132C335.659 442.077 338.3 442.761 341.056 443.247L342.794 433.399ZM336.794 431.799H346.794V416.799H336.794H326.794V431.799H336.794ZM336.794 416.799L332.656 425.903C334.653 426.81 336.797 427.572 339.047 428.214L341.794 418.599L344.541 408.984C343.057 408.56 341.868 408.121 340.932 407.695L336.794 416.799ZM341.794 418.599L339.698 428.377C342.329 428.941 345.037 429.199 347.794 429.199V419.199V409.199C346.284 409.199 344.992 409.057 343.889 408.821L341.794 418.599ZM347.794 419.199V429.199C354.96 429.199 361.168 426.088 365.354 420.179L357.194 414.399L349.034 408.619C348.869 408.851 348.748 408.971 348.688 409.025C348.63 409.076 348.603 409.09 348.596 409.093C348.589 409.097 348.547 409.118 348.443 409.141C348.333 409.166 348.126 409.199 347.794 409.199V419.199ZM357.194 414.399L365.309 420.242C368.528 415.772 370.845 410.578 372.429 404.875L362.794 402.199L353.159 399.523C352.076 403.42 350.66 406.36 349.078 408.556L357.194 414.399ZM362.794 402.199L372.447 404.808C373.84 399.654 375.029 394.553 376.01 389.508L366.194 387.599L356.378 385.69C355.492 390.245 354.414 394.878 353.14 399.59L362.794 402.199ZM366.194 387.599L375.986 389.625C376.824 385.577 377.781 380.301 378.858 373.843L368.994 372.199L359.13 370.555C358.073 376.897 357.164 381.887 356.401 385.573L366.194 387.599ZM368.994 372.199L378.863 373.81C379.946 367.177 381.091 359.494 382.299 350.771L372.394 349.399L362.488 348.027C361.296 356.638 360.175 364.155 359.124 370.588L368.994 372.199ZM372.394 349.399L382.277 350.92C383.623 342.17 384.967 332.698 386.308 322.504L376.394 321.199L366.479 319.894C365.154 329.967 363.831 339.294 362.51 347.878L372.394 349.399ZM376.394 321.199L386.293 322.613C387.771 312.269 389.18 301.529 390.522 290.395L380.594 289.199L370.666 288.003C369.34 299.002 367.95 309.596 366.494 319.785L376.394 321.199ZM380.594 289.199V299.199H458.794V289.199V279.199H380.594V289.199ZM458.794 289.199H448.794V431.999H458.794H468.794V289.199H458.794Z" fill="#323329" mask="url(#path-4-outside-1_353_91)"/>
</svg>
