<svg width="77" height="77" viewBox="0 0 77 77" fill="none" xmlns="http://www.w3.org/2000/svg">
<path d="M4.27778 34.2222H29.9444C31.079 34.2222 32.167 33.7715 32.9693 32.9693C33.7715 32.167 34.2222 31.079 34.2222 29.9444V4.27778C34.2222 3.14324 33.7715 2.05517 32.9693 1.25293C32.167 0.450693 31.079 0 29.9444 0H4.27778C3.14324 0 2.05517 0.450693 1.25293 1.25293C0.450693 2.05517 0 3.14324 0 4.27778V29.9444C0 31.079 0.450693 32.167 1.25293 32.9693C2.05517 33.7715 3.14324 34.2222 4.27778 34.2222ZM47.0556 34.2222H72.7222C73.8568 34.2222 74.9448 33.7715 75.7471 32.9693C76.5493 32.167 77 31.079 77 29.9444V4.27778C77 3.14324 76.5493 2.05517 75.7471 1.25293C74.9448 0.450693 73.8568 0 72.7222 0H47.0556C45.921 0 44.8329 0.450693 44.0307 1.25293C43.2285 2.05517 42.7778 3.14324 42.7778 4.27778V29.9444C42.7778 31.079 43.2285 32.167 44.0307 32.9693C44.8329 33.7715 45.921 34.2222 47.0556 34.2222ZM4.27778 77H29.9444C31.079 77 32.167 76.5493 32.9693 75.7471C33.7715 74.9448 34.2222 73.8568 34.2222 72.7222V47.0556C34.2222 45.921 33.7715 44.8329 32.9693 44.0307C32.167 43.2285 31.079 42.7778 29.9444 42.7778H4.27778C3.14324 42.7778 2.05517 43.2285 1.25293 44.0307C0.450693 44.8329 0 45.921 0 47.0556V72.7222C0 73.8568 0.450693 74.9448 1.25293 75.7471C2.05517 76.5493 3.14324 77 4.27778 77ZM59.8889 77C69.3257 77 77 69.3257 77 59.8889C77 50.4521 69.3257 42.7778 59.8889 42.7778C50.4521 42.7778 42.7778 50.4521 42.7778 59.8889C42.7778 69.3257 50.4521 77 59.8889 77Z" fill="#C47C4C"/>
</svg>
