<!DOCTYPE svg PUBLIC "-//W3C//DTD SVG 1.1//EN" "http://www.w3.org/Graphics/SVG/1.1/DTD/svg11.dtd">
<!-- Uploaded to: SVG Repo, www.svgrepo.com, Transformed by: SVG Repo Mixer Tools -->
<svg fill="#C47C4C" height="800px" width="800px" version="1.1" id="Layer_1" xmlns="http://www.w3.org/2000/svg" xmlns:xlink="http://www.w3.org/1999/xlink" viewBox="0 0 512 512" xml:space="preserve">
<g id="SVGRepo_bgCarrier" stroke-width="0"/>
<g id="SVGRepo_tracerCarrier" stroke-linecap="round" stroke-linejoin="round"/>
<g id="SVGRepo_iconCarrier"> <path d="M35.914,195.085C59.608,131.097,105.178,68.459,165.2,35.399C98.165-15.985,0,31.748,0,116.971 C0,147.984,13.744,176.125,35.914,195.085z"/> <path d="M476.088,195.083C498.256,176.122,512,147.982,512,116.97c0-85.209-98.184-133.012-165.255-81.53 C406.549,68.439,452.248,130.76,476.088,195.083z"/> <path d="M490.049,364.339l-37.378-10.79c7.579-21.095,9.833-43.63,8.849-65.845l29.1-9.526c8.855-2.898,13.682-12.426,10.783-21.28 c-2.899-8.855-12.425-13.679-21.278-10.783l-22.617,7.404C438.317,151.331,356.087,44.945,256,44.945 c-100.781,0-182.379,106.87-201.496,208.58l-22.628-7.407c-8.849-2.892-18.379,1.93-21.278,10.783 c-2.898,8.853,1.93,18.382,10.783,21.28l29.1,9.526c-0.993,22.306,1.299,44.832,8.848,65.845L21.95,364.34 c-8.95,2.583-14.112,11.934-11.528,20.884c2.585,8.955,11.94,14.112,20.885,11.528l43.831-12.653 c26.728,37.861,73.207,58.632,130.644,65.753v31.098c0,9.316,7.552,16.868,16.868,16.868h66.699c9.316,0,16.868-7.552,16.868-16.868 v-31.098c57.446-7.123,103.92-27.896,130.645-65.753l43.831,12.653c8.951,2.585,18.302-2.58,20.885-11.528 C504.161,376.274,499,366.922,490.049,364.339z M148.526,222.884c0.011-12.324,10.011-22.305,22.334-22.294 c12.324,0.011,22.305,10.011,22.294,22.334s-10.011,22.305-22.334,22.294C158.496,245.207,148.515,235.208,148.526,222.884z M272.481,464.081h-32.963v-11.616c10.878,0.385,22.077,0.386,32.963,0V464.081z M324.251,348.278l-51.383,53.853v16.558 c-11.108,0.436-22.628,0.436-33.736,0v-16.558l-51.384-53.854c-17.464-18.304-4.471-48.737,20.861-48.737h94.784 C328.691,299.54,341.74,329.951,324.251,348.278z M341.138,245.366c-12.324-0.011-22.305-10.011-22.294-22.334 c0.011-12.324,10.011-22.305,22.334-22.294c12.324,0.011,22.305,10.011,22.294,22.334 C363.462,235.395,353.462,245.377,341.138,245.366z"/> </g>
</svg>