<svg width="20" height="16" viewBox="0 0 20 16" fill="none" xmlns="http://www.w3.org/2000/svg">
<path d="M15.4545 0C13.9 0 12.9545 0.33 12.4091 0.61C11.7091 0.23 10.9091 0 10 0C9.09091 0 8.29091 0.23 7.59091 0.61C7.04546 0.33 6.1 0 4.54545 0C1.81818 0 0 8 0 10C0 10.83 1.2 11.59 2.85455 11.9C3.43636 14.14 6.18182 15.85 9.54545 16V11.72C9.00909 11.35 8.18182 10.68 8.18182 10C8.18182 9 10 9 10 9C10 9 11.8182 9 11.8182 10C11.8182 10.68 10.9909 11.35 10.4545 11.72V16C13.8182 15.85 16.5636 14.14 17.1455 11.9C18.8 11.59 20 10.83 20 10C20 8 18.1818 0 15.4545 0ZM2.86364 9.87C2.40909 9.75 2.05455 9.61 1.81818 9.5C2.04545 6.73 3.81818 2.4 4.59091 2C5.08182 2 5.45455 2.06 5.79091 2.11C3.88182 4.42 3.12727 8.04 2.86364 9.87ZM7.27273 8C7.03162 8 6.80039 7.89464 6.6299 7.70711C6.45942 7.51957 6.36364 7.26522 6.36364 7C6.36364 6.46 6.77273 6 7.27273 6C7.51383 6 7.74506 6.10536 7.91555 6.29289C8.08604 6.48043 8.18182 6.73478 8.18182 7C8.18182 7.56 7.77273 8 7.27273 8ZM12.7273 8C12.4862 8 12.2549 7.89464 12.0844 7.70711C11.914 7.51957 11.8182 7.26522 11.8182 7C11.8182 6.46 12.2273 6 12.7273 6C12.9684 6 13.1996 6.10536 13.3701 6.29289C13.5406 6.48043 13.6364 6.73478 13.6364 7C13.6364 7.56 13.2273 8 12.7273 8ZM17.1364 9.87C16.8727 8.04 16.1182 4.42 14.2091 2.11C14.5455 2.06 14.9182 2 15.4091 2C16.1818 2.4 17.9545 6.73 18.1818 9.5C17.9545 9.61 17.6 9.75 17.1364 9.87Z" fill="#C47C4C"/>
</svg>
